<svg width="408" height="408" viewBox="0 0 408 408" fill="none" xmlns="http://www.w3.org/2000/svg">
<g filter="url(#filter0_d_1_2)">
<g filter="url(#filter1_b_1_2)">
<path d="M204 350C130.362 350 70.6667 288.439 70.6667 212.5C70.6667 136.561 130.362 0 204 0C277.638 0 337.333 136.561 337.333 212.5C337.333 288.439 277.638 350 204 350Z" fill="#8CACFF"/>
</g>
<g filter="url(#filter2_b_1_2)">
<path d="M204 50C277.638 50 337.334 111.561 337.334 187.5C337.334 263.439 277.638 400 204 400C130.362 400 70.6669 263.439 70.6669 187.5C70.6669 111.561 130.362 50 204 50Z" fill="#8CACFF"/>
</g>
<g filter="url(#filter3_b_1_2)">
<path d="M354 200C354 273.638 292.439 333.333 216.5 333.333C140.561 333.333 4 273.638 4 200C4 126.362 140.561 66.6667 216.5 66.6667C292.439 66.6667 354 126.362 354 200Z" fill="#8CACFF"/>
</g>
<g filter="url(#filter4_b_1_2)">
<path d="M54 200C54 126.362 115.561 66.6666 191.5 66.6666C267.439 66.6666 404 126.362 404 200C404 273.638 267.439 333.333 191.5 333.333C115.561 333.333 54 273.638 54 200Z" fill="#8CACFF"/>
</g>
</g>
<defs>
<filter id="filter0_d_1_2" x="0" y="0" width="408" height="408" filterUnits="userSpaceOnUse" color-interpolation-filters="sRGB">
<feFlood flood-opacity="0" result="BackgroundImageFix"/>
<feColorMatrix in="SourceAlpha" type="matrix" values="0 0 0 0 0 0 0 0 0 0 0 0 0 0 0 0 0 0 127 0" result="hardAlpha"/>
<feOffset dy="4"/>
<feGaussianBlur stdDeviation="2"/>
<feComposite in2="hardAlpha" operator="out"/>
<feColorMatrix type="matrix" values="0 0 0 0 0 0 0 0 0 0 0 0 0 0 0 0 0 0 0.25 0"/>
<feBlend mode="normal" in2="BackgroundImageFix" result="effect1_dropShadow_1_2"/>
<feBlend mode="normal" in="SourceGraphic" in2="effect1_dropShadow_1_2" result="shape"/>
</filter>
<filter id="filter1_b_1_2" x="66.6667" y="-4" width="274.667" height="358" filterUnits="userSpaceOnUse" color-interpolation-filters="sRGB">
<feFlood flood-opacity="0" result="BackgroundImageFix"/>
<feGaussianBlur in="BackgroundImageFix" stdDeviation="2"/>
<feComposite in2="SourceAlpha" operator="in" result="effect1_backgroundBlur_1_2"/>
<feBlend mode="normal" in="SourceGraphic" in2="effect1_backgroundBlur_1_2" result="shape"/>
</filter>
<filter id="filter2_b_1_2" x="66.6669" y="46" width="274.667" height="358" filterUnits="userSpaceOnUse" color-interpolation-filters="sRGB">
<feFlood flood-opacity="0" result="BackgroundImageFix"/>
<feGaussianBlur in="BackgroundImageFix" stdDeviation="2"/>
<feComposite in2="SourceAlpha" operator="in" result="effect1_backgroundBlur_1_2"/>
<feBlend mode="normal" in="SourceGraphic" in2="effect1_backgroundBlur_1_2" result="shape"/>
</filter>
<filter id="filter3_b_1_2" x="0" y="62.6667" width="358" height="274.667" filterUnits="userSpaceOnUse" color-interpolation-filters="sRGB">
<feFlood flood-opacity="0" result="BackgroundImageFix"/>
<feGaussianBlur in="BackgroundImageFix" stdDeviation="2"/>
<feComposite in2="SourceAlpha" operator="in" result="effect1_backgroundBlur_1_2"/>
<feBlend mode="normal" in="SourceGraphic" in2="effect1_backgroundBlur_1_2" result="shape"/>
</filter>
<filter id="filter4_b_1_2" x="50" y="62.6666" width="358" height="274.667" filterUnits="userSpaceOnUse" color-interpolation-filters="sRGB">
<feFlood flood-opacity="0" result="BackgroundImageFix"/>
<feGaussianBlur in="BackgroundImageFix" stdDeviation="2"/>
<feComposite in2="SourceAlpha" operator="in" result="effect1_backgroundBlur_1_2"/>
<feBlend mode="normal" in="SourceGraphic" in2="effect1_backgroundBlur_1_2" result="shape"/>
</filter>
</defs>
</svg>
