<svg width="400" height="400" viewBox="0 0 400 400" fill="none" xmlns="http://www.w3.org/2000/svg">
<mask id="path-1-inside-1_1_7" fill="white">
<path fill-rule="evenodd" clip-rule="evenodd" d="M303.716 303.715C279.272 355.803 241.892 400 200 400C158.108 400 120.729 355.804 96.285 303.716C44.1966 279.272 0 241.892 0 200C0 158.108 44.1961 120.729 96.2843 96.285C120.728 44.1965 158.108 0 200 0C241.892 0 279.271 44.1961 303.715 96.2843C355.803 120.728 400 158.108 400 200C400 241.892 355.804 279.271 303.716 303.715Z"/>
</mask>
<path d="M303.716 303.715L290.971 276.557L281.161 281.16L276.557 290.97L303.716 303.715ZM96.285 303.716L123.443 290.971L118.84 281.161L109.03 276.557L96.285 303.716ZM96.2843 96.285L109.029 123.443L118.839 118.84L123.443 109.03L96.2843 96.285ZM303.715 96.2843L276.557 109.029L281.16 118.839L290.97 123.443L303.715 96.2843ZM276.557 290.97C265.297 314.966 251.648 335.781 237.234 350.131C222.617 364.685 209.972 370 200 370V430C231.921 430 258.911 413.217 279.568 392.65C300.429 371.88 317.691 344.552 330.874 316.46L276.557 290.97ZM200 370C190.029 370 177.383 364.685 162.766 350.131C148.353 335.781 134.704 314.967 123.443 290.971L69.1267 316.46C82.3097 344.553 99.5722 371.881 120.433 392.65C141.089 413.217 168.08 430 200 430V370ZM109.03 276.557C85.0336 265.297 64.2194 251.648 49.8687 237.234C35.3154 222.617 30 209.972 30 200H-30C-30 231.921 -13.2171 258.911 7.34995 279.568C28.1196 300.429 55.448 317.691 83.5405 330.874L109.03 276.557ZM30 200C30 190.029 35.3154 177.383 49.8685 162.766C64.2191 148.353 85.0331 134.704 109.029 123.443L83.5396 69.1267C55.4473 82.3097 28.1192 99.5722 7.34964 120.433C-13.2173 141.089 -30 168.08 -30 200H30ZM123.443 109.03C134.703 85.0336 148.352 64.2194 162.766 49.8687C177.383 35.3154 190.028 30 200 30V-30C168.079 -30 141.089 -13.2171 120.432 7.34995C99.5715 28.1196 82.3089 55.448 69.1259 83.5405L123.443 109.03ZM200 30C209.971 30 222.617 35.3154 237.234 49.8685C251.647 64.2191 265.296 85.0331 276.557 109.029L330.873 83.5396C317.69 55.4473 300.428 28.1192 279.567 7.34965C258.911 -13.2173 231.92 -30 200 -30V30ZM290.97 123.443C314.966 134.703 335.781 148.352 350.131 162.766C364.685 177.383 370 190.028 370 200H430C430 168.079 413.217 141.089 392.65 120.432C371.88 99.5715 344.552 82.3089 316.46 69.126L290.97 123.443ZM370 200C370 209.971 364.685 222.617 350.131 237.234C335.781 251.647 314.967 265.296 290.971 276.557L316.46 330.873C344.553 317.69 371.881 300.428 392.65 279.567C413.217 258.911 430 231.92 430 200H370Z" fill="black" mask="url(#path-1-inside-1_1_7)"/>
</svg>
