<svg width="265" height="54" viewBox="0 0 265 54" fill="none" xmlns="http://www.w3.org/2000/svg">
<g filter="url(#filter0_d_421_1987)">
<g filter="url(#filter1_d_421_1987)">
<path d="M64.9939 43C64.3859 43 63.8739 42.84 63.4579 42.52C63.0739 42.168 62.8819 41.704 62.8819 41.128V7.384C62.8819 6.84 63.0579 6.392 63.4099 6.04C63.7619 5.688 64.2099 5.512 64.7539 5.512H76.4179C78.3379 5.512 80.0659 5.928 81.6019 6.76C83.1699 7.56 84.4019 8.664 85.2979 10.072C86.2259 11.48 86.6899 13.112 86.6899 14.968C86.6899 16.696 86.2259 18.232 85.2979 19.576C84.3699 20.92 83.1539 21.944 81.6499 22.648C83.7939 23.224 85.5219 24.312 86.8339 25.912C88.1459 27.48 88.8019 29.48 88.8019 31.912C88.8019 34.088 88.3059 36.008 87.3139 37.672C86.3219 39.336 84.9459 40.648 83.1859 41.608C81.4579 42.536 79.4739 43 77.2339 43H64.9939ZM66.6259 39.4H77.2339C78.7699 39.4 80.1299 39.096 81.3139 38.488C82.4979 37.88 83.4259 37.016 84.0979 35.896C84.7699 34.776 85.1059 33.448 85.1059 31.912C85.1059 30.472 84.7699 29.224 84.0979 28.168C83.4259 27.08 82.4979 26.248 81.3139 25.672C80.1299 25.064 78.7699 24.76 77.2339 24.76H66.6259V39.4ZM66.6259 21.16H76.4179C78.3379 21.16 79.9219 20.616 81.1699 19.528C82.4179 18.44 83.0419 16.92 83.0419 14.968C83.0419 13.048 82.4179 11.592 81.1699 10.6C79.9219 9.608 78.3379 9.112 76.4179 9.112H66.6259V21.16ZM106.961 43.24C104.369 43.24 102.065 42.68 100.049 41.56C98.0649 40.408 96.4969 38.824 95.3449 36.808C94.2249 34.792 93.6649 32.488 93.6649 29.896C93.6649 27.272 94.1929 24.968 95.2489 22.984C96.3369 20.968 97.8249 19.384 99.7129 18.232C101.601 17.08 103.777 16.504 106.241 16.504C108.673 16.504 110.785 17.064 112.577 18.184C114.401 19.272 115.809 20.792 116.801 22.744C117.793 24.696 118.289 26.92 118.289 29.416C118.289 29.928 118.129 30.344 117.809 30.664C117.489 30.952 117.073 31.096 116.561 31.096H96.1609V28.024H116.945L114.881 29.512C114.913 27.656 114.577 25.992 113.873 24.52C113.169 23.048 112.161 21.896 110.849 21.064C109.569 20.232 108.033 19.816 106.241 19.816C104.417 19.816 102.817 20.248 101.441 21.112C100.065 21.976 98.9929 23.176 98.2249 24.712C97.4889 26.216 97.1209 27.944 97.1209 29.896C97.1209 31.848 97.5369 33.576 98.3689 35.08C99.2329 36.584 100.401 37.768 101.873 38.632C103.345 39.496 105.041 39.928 106.961 39.928C108.113 39.928 109.265 39.736 110.417 39.352C111.601 38.936 112.545 38.424 113.249 37.816C113.601 37.528 114.001 37.384 114.449 37.384C114.897 37.352 115.281 37.464 115.601 37.72C116.017 38.104 116.225 38.52 116.225 38.968C116.257 39.416 116.081 39.8 115.697 40.12C114.641 41.016 113.297 41.768 111.665 42.376C110.033 42.952 108.465 43.24 106.961 43.24ZM135.821 43.48C133.773 43.48 131.869 43.192 130.109 42.616C128.381 42.008 126.877 41.16 125.597 40.072C124.317 38.984 123.341 37.72 122.669 36.28C122.413 35.768 122.397 35.304 122.621 34.888C122.877 34.44 123.293 34.136 123.869 33.976C124.317 33.848 124.749 33.896 125.165 34.12C125.613 34.344 125.949 34.68 126.173 35.128C126.653 36.056 127.357 36.888 128.285 37.624C129.213 38.36 130.317 38.936 131.597 39.352C132.877 39.736 134.285 39.928 135.821 39.928C137.517 39.928 139.021 39.656 140.333 39.112C141.645 38.536 142.669 37.72 143.405 36.664C144.173 35.576 144.557 34.264 144.557 32.728C144.557 30.776 143.837 29.096 142.397 27.688C140.957 26.28 138.701 25.384 135.629 25C131.885 24.552 128.957 23.4 126.845 21.544C124.733 19.656 123.677 17.352 123.677 14.632C123.677 12.68 124.189 10.984 125.213 9.544C126.269 8.104 127.709 7 129.533 6.232C131.357 5.432 133.453 5.032 135.821 5.032C137.581 5.032 139.181 5.32 140.621 5.896C142.061 6.44 143.309 7.176 144.365 8.104C145.453 9 146.333 9.992 147.005 11.08C147.325 11.592 147.421 12.088 147.293 12.568C147.197 13.048 146.925 13.416 146.477 13.672C145.997 13.896 145.501 13.928 144.989 13.768C144.509 13.608 144.141 13.304 143.885 12.856C143.405 12.12 142.797 11.432 142.061 10.792C141.357 10.12 140.493 9.592 139.469 9.208C138.445 8.824 137.213 8.616 135.773 8.584C133.245 8.584 131.213 9.128 129.677 10.216C128.141 11.272 127.373 12.824 127.373 14.872C127.373 15.96 127.661 16.968 128.237 17.896C128.813 18.792 129.757 19.576 131.069 20.248C132.413 20.888 134.205 21.368 136.445 21.688C140.445 22.264 143.405 23.496 145.325 25.384C147.277 27.24 148.253 29.672 148.253 32.68C148.253 34.408 147.933 35.944 147.293 37.288C146.685 38.632 145.805 39.768 144.653 40.696C143.533 41.592 142.205 42.28 140.669 42.76C139.165 43.24 137.549 43.48 135.821 43.48ZM156.755 32.296C156.179 32.296 155.715 32.12 155.363 31.768C155.043 31.416 154.883 30.968 154.883 30.424V7.384C154.883 6.808 155.043 6.36 155.363 6.04C155.715 5.688 156.179 5.512 156.755 5.512C157.299 5.512 157.731 5.688 158.051 6.04C158.403 6.36 158.579 6.808 158.579 7.384V30.424C158.579 30.968 158.403 31.416 158.051 31.768C157.731 32.12 157.299 32.296 156.755 32.296ZM177.395 43C176.851 43 176.403 42.824 176.051 42.472C175.699 42.12 175.523 41.688 175.523 41.176V28.696C175.523 26.712 175.139 25.08 174.371 23.8C173.635 22.52 172.611 21.56 171.299 20.92C170.019 20.28 168.563 19.96 166.931 19.96C165.363 19.96 163.939 20.264 162.659 20.872C161.411 21.48 160.419 22.312 159.683 23.368C158.947 24.424 158.579 25.624 158.579 26.968H155.939C156.003 24.952 156.547 23.16 157.571 21.592C158.595 19.992 159.955 18.744 161.651 17.848C163.347 16.92 165.235 16.456 167.315 16.456C169.587 16.456 171.619 16.936 173.411 17.896C175.203 18.824 176.611 20.2 177.635 22.024C178.691 23.848 179.219 26.072 179.219 28.696V41.176C179.219 41.688 179.043 42.12 178.691 42.472C178.339 42.824 177.907 43 177.395 43ZM156.755 43C156.179 43 155.715 42.84 155.363 42.52C155.043 42.168 154.883 41.72 154.883 41.176V18.616C154.883 18.04 155.043 17.592 155.363 17.272C155.715 16.92 156.179 16.744 156.755 16.744C157.299 16.744 157.731 16.92 158.051 17.272C158.403 17.592 158.579 18.04 158.579 18.616V41.176C158.579 41.72 158.403 42.168 158.051 42.52C157.731 42.84 157.299 43 156.755 43ZM198.215 43.24C195.751 43.24 193.543 42.664 191.591 41.512C189.639 40.328 188.087 38.728 186.935 36.712C185.815 34.696 185.255 32.424 185.255 29.896C185.255 27.336 185.831 25.048 186.983 23.032C188.167 21.016 189.767 19.432 191.783 18.28C193.799 17.096 196.071 16.504 198.599 16.504C201.127 16.504 203.383 17.096 205.367 18.28C207.383 19.432 208.967 21.016 210.119 23.032C211.303 25.048 211.911 27.336 211.943 29.896L210.455 31.048C210.455 33.352 209.911 35.432 208.823 37.288C207.767 39.112 206.311 40.568 204.455 41.656C202.631 42.712 200.551 43.24 198.215 43.24ZM198.599 39.88C200.455 39.88 202.103 39.448 203.543 38.584C205.015 37.72 206.167 36.536 206.999 35.032C207.863 33.496 208.295 31.784 208.295 29.896C208.295 27.976 207.863 26.264 206.999 24.76C206.167 23.256 205.015 22.072 203.543 21.208C202.103 20.312 200.455 19.864 198.599 19.864C196.775 19.864 195.127 20.312 193.655 21.208C192.183 22.072 191.015 23.256 190.151 24.76C189.287 26.264 188.855 27.976 188.855 29.896C188.855 31.784 189.287 33.496 190.151 35.032C191.015 36.536 192.183 37.72 193.655 38.584C195.127 39.448 196.775 39.88 198.599 39.88ZM210.071 43C209.527 43 209.079 42.84 208.727 42.52C208.375 42.168 208.199 41.72 208.199 41.176V32.968L209.111 29.176L211.943 29.896V41.176C211.943 41.72 211.767 42.168 211.415 42.52C211.063 42.84 210.615 43 210.071 43ZM219.947 26.824C220.043 24.84 220.555 23.064 221.483 21.496C222.443 19.928 223.675 18.696 225.179 17.8C226.715 16.904 228.411 16.456 230.267 16.456C231.739 16.456 232.875 16.664 233.675 17.08C234.475 17.496 234.779 18.104 234.587 18.904C234.459 19.384 234.235 19.704 233.915 19.864C233.627 20.024 233.259 20.088 232.811 20.056C232.395 20.024 231.915 19.992 231.371 19.96C229.579 19.8 227.979 19.992 226.571 20.536C225.195 21.048 224.091 21.848 223.259 22.936C222.459 24.024 222.059 25.32 222.059 26.824H219.947ZM220.235 43C219.659 43 219.211 42.84 218.891 42.52C218.571 42.2 218.411 41.752 218.411 41.176V18.568C218.411 17.992 218.571 17.544 218.891 17.224C219.211 16.904 219.659 16.744 220.235 16.744C220.811 16.744 221.259 16.904 221.579 17.224C221.899 17.544 222.059 17.992 222.059 18.568V41.176C222.059 41.752 221.899 42.2 221.579 42.52C221.259 42.84 220.811 43 220.235 43ZM249.658 43.24C247.066 43.24 244.762 42.68 242.746 41.56C240.762 40.408 239.194 38.824 238.042 36.808C236.922 34.792 236.362 32.488 236.362 29.896C236.362 27.272 236.89 24.968 237.946 22.984C239.034 20.968 240.522 19.384 242.41 18.232C244.298 17.08 246.474 16.504 248.938 16.504C251.37 16.504 253.482 17.064 255.274 18.184C257.098 19.272 258.506 20.792 259.498 22.744C260.49 24.696 260.986 26.92 260.986 29.416C260.986 29.928 260.826 30.344 260.506 30.664C260.186 30.952 259.77 31.096 259.258 31.096H238.858V28.024H259.642L257.578 29.512C257.61 27.656 257.274 25.992 256.57 24.52C255.866 23.048 254.858 21.896 253.546 21.064C252.266 20.232 250.73 19.816 248.938 19.816C247.114 19.816 245.514 20.248 244.138 21.112C242.762 21.976 241.69 23.176 240.922 24.712C240.186 26.216 239.818 27.944 239.818 29.896C239.818 31.848 240.234 33.576 241.066 35.08C241.93 36.584 243.098 37.768 244.57 38.632C246.042 39.496 247.738 39.928 249.658 39.928C250.81 39.928 251.962 39.736 253.114 39.352C254.298 38.936 255.242 38.424 255.946 37.816C256.298 37.528 256.698 37.384 257.146 37.384C257.594 37.352 257.978 37.464 258.298 37.72C258.714 38.104 258.922 38.52 258.922 38.968C258.954 39.416 258.778 39.8 258.394 40.12C257.338 41.016 255.994 41.768 254.362 42.376C252.73 42.952 251.162 43.24 249.658 43.24Z" fill="white"/>
</g>
<g filter="url(#filter2_d_421_1987)">
<path fill-rule="evenodd" clip-rule="evenodd" d="M38 25.9711C38 25.6354 37.9903 25.302 37.9711 24.9711H33.9621C33.9872 25.3011 34 25.6346 34 25.9711C34 33.1508 28.1797 38.9711 21 38.9711C13.8203 38.9711 8 33.1508 8 25.9711C8 19.1279 13.2875 13.5196 20 13.009V9.00003C11.0766 9.51765 4 16.918 4 25.9711C4 35.36 11.6112 42.9711 21 42.9711C30.3888 42.9711 38 35.36 38 25.9711ZM24 26.0001C24 26.3357 24.0097 26.6692 24.0289 27H28.0379C28.0128 26.67 28 26.3365 28 26.0001C28 18.8203 33.8203 13 41 13C48.1797 13 54 18.8203 54 26.0001C54 32.8433 48.7124 38.4515 42 38.9622V42.9711C50.9234 42.4535 58 35.0532 58 26.0001C58 16.6112 50.3888 9.00005 41 9.00005C31.6112 9.00005 24 16.6112 24 26.0001Z" fill="black"/>
<path fill-rule="evenodd" clip-rule="evenodd" d="M38 23.9711C38 23.6354 37.9903 23.302 37.9711 22.9711H33.9621C33.9872 23.3011 34 23.6346 34 23.9711C34 31.1508 28.1797 36.9711 21 36.9711C13.8203 36.9711 8 31.1508 8 23.9711C8 17.1279 13.2875 11.5196 20 11.009V7.00003C11.0766 7.51765 4 14.918 4 23.9711C4 33.36 11.6112 40.9711 21 40.9711C30.3888 40.9711 38 33.36 38 23.9711ZM24 24.0001C24 24.3357 24.0097 24.6692 24.0289 25H28.0379C28.0128 24.67 28 24.3365 28 24.0001C28 16.8203 33.8203 11 41 11C48.1797 11 54 16.8203 54 24.0001C54 30.8433 48.7124 36.4515 42 36.9622V40.9711C50.9234 40.4535 58 33.0532 58 24.0001C58 14.6112 50.3888 7.00005 41 7.00005C31.6112 7.00005 24 14.6112 24 24.0001Z" fill="white"/>
</g>
</g>
<defs>
<filter id="filter0_d_421_1987" x="0" y="5.03198" width="264.986" height="46.448" filterUnits="userSpaceOnUse" color-interpolation-filters="sRGB">
<feFlood flood-opacity="0" result="BackgroundImageFix"/>
<feColorMatrix in="SourceAlpha" type="matrix" values="0 0 0 0 0 0 0 0 0 0 0 0 0 0 0 0 0 0 127 0" result="hardAlpha"/>
<feOffset dy="4"/>
<feGaussianBlur stdDeviation="2"/>
<feComposite in2="hardAlpha" operator="out"/>
<feColorMatrix type="matrix" values="0 0 0 0 0 0 0 0 0 0 0 0 0 0 0 0 0 0 0.25 0"/>
<feBlend mode="normal" in2="BackgroundImageFix" result="effect1_dropShadow_421_1987"/>
<feBlend mode="normal" in="SourceGraphic" in2="effect1_dropShadow_421_1987" result="shape"/>
</filter>
<filter id="filter1_d_421_1987" x="58.8819" y="5.03198" width="206.104" height="46.448" filterUnits="userSpaceOnUse" color-interpolation-filters="sRGB">
<feFlood flood-opacity="0" result="BackgroundImageFix"/>
<feColorMatrix in="SourceAlpha" type="matrix" values="0 0 0 0 0 0 0 0 0 0 0 0 0 0 0 0 0 0 127 0" result="hardAlpha"/>
<feOffset dy="4"/>
<feGaussianBlur stdDeviation="2"/>
<feComposite in2="hardAlpha" operator="out"/>
<feColorMatrix type="matrix" values="0 0 0 0 0 0 0 0 0 0 0 0 0 0 0 0 0 0 0.25 0"/>
<feBlend mode="normal" in2="BackgroundImageFix" result="effect1_dropShadow_421_1987"/>
<feBlend mode="normal" in="SourceGraphic" in2="effect1_dropShadow_421_1987" result="shape"/>
</filter>
<filter id="filter2_d_421_1987" x="0" y="7" width="62" height="43.9711" filterUnits="userSpaceOnUse" color-interpolation-filters="sRGB">
<feFlood flood-opacity="0" result="BackgroundImageFix"/>
<feColorMatrix in="SourceAlpha" type="matrix" values="0 0 0 0 0 0 0 0 0 0 0 0 0 0 0 0 0 0 127 0" result="hardAlpha"/>
<feOffset dy="4"/>
<feGaussianBlur stdDeviation="2"/>
<feComposite in2="hardAlpha" operator="out"/>
<feColorMatrix type="matrix" values="0 0 0 0 0 0 0 0 0 0 0 0 0 0 0 0 0 0 0.25 0"/>
<feBlend mode="normal" in2="BackgroundImageFix" result="effect1_dropShadow_421_1987"/>
<feBlend mode="normal" in="SourceGraphic" in2="effect1_dropShadow_421_1987" result="shape"/>
</filter>
</defs>
</svg>
