<svg width="358" height="510" viewBox="0 0 358 510" fill="none" xmlns="http://www.w3.org/2000/svg">
<path fill-rule="evenodd" clip-rule="evenodd" d="M23 10C28.5228 10 33 5.52285 33 0H39C39 5.52285 43.4772 10 49 10C54.5228 10 59 5.52285 59 0H65C65 5.52285 69.4771 10 75 10C80.5229 10 85 5.52285 85 0H91C91 5.52285 95.4771 10 101 10C106.523 10 111 5.52285 111 0H117C117 5.52285 121.477 10 127 10C132.523 10 137 5.52285 137 0H143C143 5.52285 147.477 10 153 10C158.523 10 163 5.52285 163 0H169C169 5.52285 173.477 10 179 10C184.523 10 189 5.52285 189 0H195C195 5.52285 199.477 10 205 10C210.523 10 215 5.52285 215 0H221C221 5.52285 225.477 10 231 10C236.523 10 241 5.52285 241 0H247C247 5.52285 251.477 10 257 10C262.523 10 267 5.52285 267 0H273C273 5.52285 277.477 10 283 10C288.523 10 293 5.52285 293 0H299C299 5.52285 303.477 10 309 10C314.523 10 319 5.52285 319 0H325C325 5.52285 329.477 10 335 10C340.494 10 344.953 5.56945 345 0.0863606C347.735 0.213667 349.614 0.528638 351.201 1.30792C353.544 2.4584 355.449 4.29417 356.643 6.55211C358 9.119 358 12.4792 358 19.1995V19.2V154C352.269 154 347.623 158.477 347.623 164C347.623 169.523 352.269 174 358 174V490.8V490.8C358 497.521 358 500.881 356.643 503.448C355.449 505.706 353.544 507.542 351.201 508.692C348.537 510 345.05 510 338.077 510H19.9235C12.9496 510 9.46267 510 6.79901 508.692C4.45598 507.542 2.55104 505.706 1.35721 503.448C0 500.881 0 497.521 0 490.8V174C5.73096 174 10.3768 169.523 10.3768 164C10.3768 158.477 5.73096 154 0 154V19.2C0 12.4794 0 9.11905 1.35721 6.55211C2.55104 4.29417 4.45598 2.4584 6.79901 1.30792C8.38606 0.528639 10.2654 0.213667 13.0004 0.0863607C13.0467 5.56945 17.506 10 23 10Z" fill="white"/>
</svg>
