<svg width="11" height="11" viewBox="0 0 11 11" fill="none" xmlns="http://www.w3.org/2000/svg">
<path d="M8.77817 10.1924C9.1687 10.5829 9.80186 10.5829 10.1924 10.1924C10.5829 9.80186 10.5829 9.1687 10.1924 8.77817L6.65686 5.24264L10.1924 1.70711C10.5829 1.31658 10.5829 0.683421 10.1924 0.292896C9.80187 -0.0976282 9.1687 -0.0976278 8.77818 0.292896L5.24264 3.82843L1.70711 0.292893C1.31658 -0.0976309 0.683417 -0.0976312 0.292893 0.292893C-0.0976312 0.683417 -0.0976309 1.31658 0.292893 1.70711L3.82843 5.24264L0.292897 8.77818C-0.0976273 9.1687 -0.0976274 9.80187 0.292897 10.1924C0.683421 10.5829 1.31659 10.5829 1.70711 10.1924L5.24264 6.65686L8.77817 10.1924Z" fill="black"/>
</svg>
