<svg width="16" height="18" viewBox="0 0 16 18" fill="none" xmlns="http://www.w3.org/2000/svg">
<path d="M12.9488 8.39487L12.1633 8.75734L12.9488 8.394V8.39487ZM12.0024 6.05565V8.02461H13.7325V6.05565H12.0024ZM3.35142 8.02461V6.05565H1.62123V8.02461H3.35142ZM2.20084 10.9002L3.19051 8.75648L1.6195 8.03153L0.629835 10.1761L2.20084 10.9002ZM12.1633 8.75648L13.1529 10.901L14.7239 10.1752L13.7343 8.03153L12.1633 8.75648ZM11.8259 12.9755H7.67689V14.7057H11.825L11.8259 12.9755ZM7.67689 12.9755L3.52876 12.9764V14.7066L7.67689 14.7057V12.9755ZM13.1529 10.901C13.3294 11.2843 13.4471 11.5395 13.5266 11.7385C13.6062 11.9374 13.6183 12.0127 13.6201 12.036L15.3442 11.8864C15.3129 11.6145 15.2417 11.3486 15.1331 11.0974C15.0045 10.7869 14.8681 10.4788 14.7239 10.1752L13.1529 10.901ZM11.825 14.7057C12.2273 14.7057 12.5638 14.7066 12.8328 14.6927C13.1064 14.686 13.3775 14.639 13.6374 14.5535L13.0517 12.9254C13.0292 12.934 12.9566 12.9539 12.742 12.9652C12.5283 12.9764 12.2463 12.9764 11.825 12.9764V14.7057ZM13.6201 12.036C13.6367 12.2262 13.59 12.4166 13.4872 12.5774C13.3844 12.7383 13.2313 12.8606 13.0517 12.9254L13.6382 14.5526C14.177 14.3585 14.6365 13.9926 14.945 13.5102C15.2536 13.0278 15.3939 12.4569 15.3442 11.8864L13.6201 12.036ZM0.629835 10.1761C0.485662 10.4797 0.349222 10.7869 0.220646 11.0974C0.112012 11.3486 0.0408909 11.6145 0.00956305 11.8864L1.73369 12.036C1.73542 12.0127 1.74754 11.9374 1.82712 11.7385C1.90671 11.5395 2.02437 11.2834 2.20084 10.9002L0.629835 10.1761ZM3.52876 12.9764C3.10833 12.9764 2.82544 12.9764 2.61176 12.9652C2.39722 12.9539 2.32455 12.9331 2.30206 12.9254L1.71553 14.5526C1.97765 14.6469 2.25189 14.678 2.52006 14.6919C2.78997 14.7066 3.12563 14.7066 3.52876 14.7066V12.9764ZM0.00956305 11.8864C-0.040166 12.4569 0.100184 13.0278 0.408748 13.5102C0.717312 13.9926 1.17676 14.3585 1.71553 14.5526L2.30206 12.9254C2.12248 12.8606 1.96935 12.7383 1.86655 12.5774C1.76374 12.4166 1.71703 12.2262 1.73369 12.036L0.00956305 11.8864ZM1.62123 8.02461C1.62123 8.0272 1.62123 8.02893 1.6195 8.03153L3.19051 8.75734C3.29605 8.52723 3.35142 8.27721 3.35142 8.02461H1.62123ZM12.0024 8.02461C12.0024 8.27721 12.0577 8.52723 12.1633 8.75734L13.7343 8.03153C13.733 8.02882 13.7324 8.02672 13.7325 8.02374H12.0024V8.02461ZM7.67689 1.73019C8.82407 1.73019 9.92427 2.1859 10.7355 2.99709C11.5466 3.80827 12.0024 4.90847 12.0024 6.05565H13.7325C13.7325 4.44959 13.0945 2.90932 11.9589 1.77366C10.8232 0.638004 9.28294 0 7.67689 0V1.73019ZM7.67689 0C6.07083 0 4.53055 0.638004 3.39489 1.77366C2.25924 2.90932 1.62123 4.44959 1.62123 6.05565H3.35142C3.35142 4.90847 3.80714 3.80827 4.61832 2.99709C5.4295 2.1859 6.5297 1.73019 7.67689 1.73019V0ZM5.22348 16.0163C5.10987 15.9939 4.99292 15.9945 4.87955 16.0181C4.76618 16.0417 4.65871 16.0878 4.5635 16.1538C4.46828 16.2197 4.38727 16.304 4.32527 16.4018C4.26326 16.4996 4.22152 16.6089 4.20252 16.7231C4.18352 16.8373 4.18765 16.9542 4.21466 17.0668C4.24167 17.1794 4.29101 17.2855 4.35976 17.3786C4.42851 17.4718 4.51527 17.5503 4.61489 17.6093C4.71452 17.6683 4.82498 17.7068 4.93973 17.7223L5.22348 16.0163ZM10.414 17.7223C10.5288 17.7068 10.6393 17.6683 10.7389 17.6093C10.8385 17.5503 10.9253 17.4718 10.994 17.3786C11.0628 17.2855 11.1121 17.1794 11.1391 17.0668C11.1661 16.9542 11.1702 16.8373 11.1512 16.7231C11.1323 16.6089 11.0905 16.4996 11.0285 16.4018C10.9665 16.304 10.8855 16.2197 10.7903 16.1538C10.6951 16.0878 10.5876 16.0417 10.4742 16.0181C10.3609 15.9945 10.2439 15.9939 10.1303 16.0163L10.414 17.7223ZM4.93973 17.7223L5.54357 17.8235L5.82818 16.1167L5.22348 16.0163L4.93973 17.7223ZM9.81021 17.8235L10.414 17.7223L10.1303 16.0163L9.52559 16.1167L9.81021 17.8235ZM5.54357 17.8235C6.95626 18.0588 8.39837 18.0588 9.81021 17.8235L9.52559 16.1167C8.30148 16.3209 7.05142 16.3209 5.82818 16.1167L5.54357 17.8235Z" fill="black"/>
</svg>
