<svg width="58" height="42" viewBox="0 0 58 42" fill="none" xmlns="http://www.w3.org/2000/svg">
<g filter="url(#filter0_d_15_207)">
<path fill-rule="evenodd" clip-rule="evenodd" d="M35.4815 17.5658C35.4815 17.255 35.4725 16.9463 35.4547 16.6399L31.7427 16.6399C31.7659 16.9455 31.7778 17.2543 31.7778 17.5658C31.7778 24.2137 26.3886 29.6028 19.7407 29.6028C13.0929 29.6028 7.7037 24.2137 7.7037 17.5658C7.7037 11.2295 12.5996 6.03666 18.8148 5.56386V1.85186C10.5524 2.33113 4 9.18328 4 17.5658C4 26.2592 11.0474 33.3066 19.7407 33.3066C28.4341 33.3066 35.4815 26.2592 35.4815 17.5658ZM22.5185 17.5926C22.5185 17.9034 22.5275 18.2122 22.5453 18.5185H26.2573C26.2341 18.2129 26.2222 17.9042 26.2222 17.5926C26.2222 10.9447 31.6114 5.55557 38.2593 5.55557C44.9071 5.55557 50.2963 10.9447 50.2963 17.5926C50.2963 23.9289 45.4004 29.1218 39.1852 29.5946V33.3066C47.4476 32.8273 54 25.9752 54 17.5926C54 8.89924 46.9526 1.85187 38.2593 1.85187C29.5659 1.85187 22.5185 8.89924 22.5185 17.5926Z" fill="black"/>
<path fill-rule="evenodd" clip-rule="evenodd" d="M35.4815 15.714C35.4815 15.4031 35.4725 15.0944 35.4547 14.788L31.7427 14.788C31.7659 15.0936 31.7778 15.4024 31.7778 15.714C31.7778 22.3618 26.3886 27.751 19.7407 27.751C13.0929 27.751 7.7037 22.3618 7.7037 15.714C7.7037 9.37763 12.5996 4.1848 18.8148 3.712V0C10.5524 0.479277 4 7.33142 4 15.714C4 24.4073 11.0474 31.4547 19.7407 31.4547C28.4341 31.4547 35.4815 24.4073 35.4815 15.714ZM22.5185 15.7408C22.5185 16.0516 22.5275 16.3603 22.5453 16.6667H26.2573C26.2341 16.3611 26.2222 16.0523 26.2222 15.7408C26.2222 9.09288 31.6114 3.70372 38.2593 3.70372C44.9071 3.70372 50.2963 9.09288 50.2963 15.7408C50.2963 22.0771 45.4004 27.2699 39.1852 27.7427V31.4547C47.4476 30.9754 54 24.1233 54 15.7408C54 7.04739 46.9526 1.52588e-05 38.2593 1.52588e-05C29.5659 1.52588e-05 22.5185 7.04739 22.5185 15.7408Z" fill="#2663FF"/>
</g>
<defs>
<filter id="filter0_d_15_207" x="0" y="0" width="58" height="41.3066" filterUnits="userSpaceOnUse" color-interpolation-filters="sRGB">
<feFlood flood-opacity="0" result="BackgroundImageFix"/>
<feColorMatrix in="SourceAlpha" type="matrix" values="0 0 0 0 0 0 0 0 0 0 0 0 0 0 0 0 0 0 127 0" result="hardAlpha"/>
<feOffset dy="4"/>
<feGaussianBlur stdDeviation="2"/>
<feComposite in2="hardAlpha" operator="out"/>
<feColorMatrix type="matrix" values="0 0 0 0 0 0 0 0 0 0 0 0 0 0 0 0 0 0 0.25 0"/>
<feBlend mode="normal" in2="BackgroundImageFix" result="effect1_dropShadow_15_207"/>
<feBlend mode="normal" in="SourceGraphic" in2="effect1_dropShadow_15_207" result="shape"/>
</filter>
</defs>
</svg>
