<svg width="30" height="30" viewBox="0 0 30 30" fill="none" xmlns="http://www.w3.org/2000/svg">
<path fill-rule="evenodd" clip-rule="evenodd" d="M15 30C23.2843 30 30 23.2843 30 15C30 6.71573 23.2843 0 15 0C6.71573 0 0 6.71573 0 15C0 23.2843 6.71573 30 15 30ZM15 27C14.0532 27 13.2857 26.2325 13.2857 25.2857V16.7143H4.71429C3.76751 16.7143 3 15.9468 3 15C3 14.0532 3.76751 13.2857 4.71429 13.2857H13.2857V4.71429C13.2857 3.76751 14.0532 3 15 3C15.9468 3 16.7143 3.76751 16.7143 4.71429V13.2857H25.2857C26.2325 13.2857 27 14.0532 27 15C27 15.9468 26.2325 16.7143 25.2857 16.7143H16.7143V25.2857C16.7143 26.2325 15.9468 27 15 27Z" fill="black"/>
</svg>
