<svg width="18" height="18" viewBox="0 0 18 18" fill="none" xmlns="http://www.w3.org/2000/svg">
<path fill-rule="evenodd" clip-rule="evenodd" d="M7.0001 0.00012207C3.13405 0.00012207 0 3.13417 0 7.00022C0 10.8663 3.13405 14.0003 7.0001 14.0003C8.57246 14.0003 10.0237 13.4819 11.1923 12.6067L16.2927 17.7071C16.6832 18.0976 17.3164 18.0976 17.7069 17.7071C18.0975 17.3165 18.0975 16.6834 17.7069 16.2928L12.6065 11.1925C13.4818 10.0239 14.0002 8.57258 14.0002 7.00022C14.0002 3.13417 10.8661 0.00012207 7.0001 0.00012207ZM2 7.00022C2 4.23874 4.23862 2.00012 7.0001 2.00012C9.76157 2.00012 12.0002 4.23874 12.0002 7.00022C12.0002 9.76169 9.76157 12.0003 7.0001 12.0003C4.23862 12.0003 2 9.76169 2 7.00022Z" fill="#111111"/>
</svg>
